G04 #@! TF.GenerationSoftware,KiCad,Pcbnew,(5.1.10)-1*
G04 #@! TF.CreationDate,2021-06-02T00:04:46-04:00*
G04 #@! TF.ProjectId,PocketVoltex,506f636b-6574-4566-9f6c-7465782e6b69,7*
G04 #@! TF.SameCoordinates,Original*
G04 #@! TF.FileFunction,Paste,Top*
G04 #@! TF.FilePolarity,Positive*
%FSLAX46Y46*%
G04 Gerber Fmt 4.6, Leading zero omitted, Abs format (unit mm)*
G04 Created by KiCad (PCBNEW (5.1.10)-1) date 2021-06-02 00:04:46*
%MOMM*%
%LPD*%
G01*
G04 APERTURE LIST*
%ADD10R,2.000000X1.100000*%
%ADD11C,0.100000*%
%ADD12R,1.100000X2.000000*%
%ADD13R,2.800000X1.000000*%
G04 APERTURE END LIST*
D10*
X164800000Y-144300000D03*
X164800000Y-146000000D03*
X164800000Y-147700000D03*
X169600000Y-147700000D03*
X169600000Y-146000000D03*
X169600000Y-144300000D03*
X140800000Y-144300000D03*
X140800000Y-146000000D03*
X140800000Y-147700000D03*
X145600000Y-147700000D03*
X145600000Y-146000000D03*
X145600000Y-144300000D03*
D11*
G36*
X210396878Y-134176777D02*
G01*
X208982664Y-135590991D01*
X208204846Y-134813173D01*
X209619060Y-133398959D01*
X210396878Y-134176777D01*
G37*
G36*
X211598960Y-135378858D02*
G01*
X210184746Y-136793072D01*
X209406928Y-136015254D01*
X210821142Y-134601040D01*
X211598960Y-135378858D01*
G37*
G36*
X212801041Y-136580940D02*
G01*
X211386827Y-137995154D01*
X210609009Y-137217336D01*
X212023223Y-135803122D01*
X212801041Y-136580940D01*
G37*
G36*
X216195154Y-133186827D02*
G01*
X214780940Y-134601041D01*
X214003122Y-133823223D01*
X215417336Y-132409009D01*
X216195154Y-133186827D01*
G37*
G36*
X214993072Y-131984746D02*
G01*
X213578858Y-133398960D01*
X212801040Y-132621142D01*
X214215254Y-131206928D01*
X214993072Y-131984746D01*
G37*
G36*
X213790991Y-130782664D02*
G01*
X212376777Y-132196878D01*
X211598959Y-131419060D01*
X213013173Y-130004846D01*
X213790991Y-130782664D01*
G37*
G36*
X98023223Y-132196878D02*
G01*
X96609009Y-130782664D01*
X97386827Y-130004846D01*
X98801041Y-131419060D01*
X98023223Y-132196878D01*
G37*
G36*
X96821142Y-133398960D02*
G01*
X95406928Y-131984746D01*
X96184746Y-131206928D01*
X97598960Y-132621142D01*
X96821142Y-133398960D01*
G37*
G36*
X95619060Y-134601041D02*
G01*
X94204846Y-133186827D01*
X94982664Y-132409009D01*
X96396878Y-133823223D01*
X95619060Y-134601041D01*
G37*
G36*
X99013173Y-137995154D02*
G01*
X97598959Y-136580940D01*
X98376777Y-135803122D01*
X99790991Y-137217336D01*
X99013173Y-137995154D01*
G37*
G36*
X100215254Y-136793072D02*
G01*
X98801040Y-135378858D01*
X99578858Y-134601040D01*
X100993072Y-136015254D01*
X100215254Y-136793072D01*
G37*
G36*
X101417336Y-135590991D02*
G01*
X100003122Y-134176777D01*
X100780940Y-133398959D01*
X102195154Y-134813173D01*
X101417336Y-135590991D01*
G37*
D12*
X218500000Y-98400000D03*
X220200000Y-98400000D03*
X221900000Y-98400000D03*
X221900000Y-93600000D03*
X220200000Y-93600000D03*
X218500000Y-93600000D03*
X91900000Y-93600000D03*
X90200000Y-93600000D03*
X88500000Y-93600000D03*
X88500000Y-98400000D03*
X90200000Y-98400000D03*
X91900000Y-98400000D03*
D10*
X204700000Y-69400000D03*
X204700000Y-67700000D03*
X204700000Y-66000000D03*
X199900000Y-66000000D03*
X199900000Y-67700000D03*
X199900000Y-69400000D03*
X110500000Y-69400000D03*
X110500000Y-67700000D03*
X110500000Y-66000000D03*
X105700000Y-66000000D03*
X105700000Y-67700000D03*
X105700000Y-69400000D03*
D13*
X152300000Y-139692000D03*
X158100000Y-139692000D03*
X152300000Y-143692000D03*
X158100000Y-143692000D03*
M02*
