G04 #@! TF.GenerationSoftware,KiCad,Pcbnew,(5.1.10)-1*
G04 #@! TF.CreationDate,2021-06-02T00:04:46-04:00*
G04 #@! TF.ProjectId,PocketVoltex,506f636b-6574-4566-9f6c-7465782e6b69,7*
G04 #@! TF.SameCoordinates,Original*
G04 #@! TF.FileFunction,Soldermask,Top*
G04 #@! TF.FilePolarity,Negative*
%FSLAX46Y46*%
G04 Gerber Fmt 4.6, Leading zero omitted, Abs format (unit mm)*
G04 Created by KiCad (PCBNEW (5.1.10)-1) date 2021-06-02 00:04:46*
%MOMM*%
%LPD*%
G01*
G04 APERTURE LIST*
%ADD10O,2.100000X2.100000*%
%ADD11C,3.600000*%
%ADD12C,2.000000*%
%ADD13O,4.200000X3.800000*%
%ADD14C,4.400000*%
%ADD15C,2.100000*%
%ADD16C,3.450000*%
%ADD17C,3.400000*%
%ADD18C,1.250000*%
%ADD19O,1.550000X1.250000*%
%ADD20O,1.300000X1.800000*%
%ADD21O,1.950000X1.300000*%
%ADD22C,1.000000*%
G04 APERTURE END LIST*
G36*
G01*
X165800000Y-145050000D02*
X163800000Y-145050000D01*
G75*
G02*
X163600000Y-144850000I0J200000D01*
G01*
X163600000Y-143750000D01*
G75*
G02*
X163800000Y-143550000I200000J0D01*
G01*
X165800000Y-143550000D01*
G75*
G02*
X166000000Y-143750000I0J-200000D01*
G01*
X166000000Y-144850000D01*
G75*
G02*
X165800000Y-145050000I-200000J0D01*
G01*
G37*
G36*
G01*
X165800000Y-146750000D02*
X163800000Y-146750000D01*
G75*
G02*
X163600000Y-146550000I0J200000D01*
G01*
X163600000Y-145450000D01*
G75*
G02*
X163800000Y-145250000I200000J0D01*
G01*
X165800000Y-145250000D01*
G75*
G02*
X166000000Y-145450000I0J-200000D01*
G01*
X166000000Y-146550000D01*
G75*
G02*
X165800000Y-146750000I-200000J0D01*
G01*
G37*
G36*
G01*
X165800000Y-148450000D02*
X163800000Y-148450000D01*
G75*
G02*
X163600000Y-148250000I0J200000D01*
G01*
X163600000Y-147150000D01*
G75*
G02*
X163800000Y-146950000I200000J0D01*
G01*
X165800000Y-146950000D01*
G75*
G02*
X166000000Y-147150000I0J-200000D01*
G01*
X166000000Y-148250000D01*
G75*
G02*
X165800000Y-148450000I-200000J0D01*
G01*
G37*
G36*
G01*
X170600000Y-148450000D02*
X168600000Y-148450000D01*
G75*
G02*
X168400000Y-148250000I0J200000D01*
G01*
X168400000Y-147150000D01*
G75*
G02*
X168600000Y-146950000I200000J0D01*
G01*
X170600000Y-146950000D01*
G75*
G02*
X170800000Y-147150000I0J-200000D01*
G01*
X170800000Y-148250000D01*
G75*
G02*
X170600000Y-148450000I-200000J0D01*
G01*
G37*
G36*
G01*
X170600000Y-146750000D02*
X168600000Y-146750000D01*
G75*
G02*
X168400000Y-146550000I0J200000D01*
G01*
X168400000Y-145450000D01*
G75*
G02*
X168600000Y-145250000I200000J0D01*
G01*
X170600000Y-145250000D01*
G75*
G02*
X170800000Y-145450000I0J-200000D01*
G01*
X170800000Y-146550000D01*
G75*
G02*
X170600000Y-146750000I-200000J0D01*
G01*
G37*
G36*
G01*
X170600000Y-145050000D02*
X168600000Y-145050000D01*
G75*
G02*
X168400000Y-144850000I0J200000D01*
G01*
X168400000Y-143750000D01*
G75*
G02*
X168600000Y-143550000I200000J0D01*
G01*
X170600000Y-143550000D01*
G75*
G02*
X170800000Y-143750000I0J-200000D01*
G01*
X170800000Y-144850000D01*
G75*
G02*
X170600000Y-145050000I-200000J0D01*
G01*
G37*
G36*
G01*
X141800000Y-145050000D02*
X139800000Y-145050000D01*
G75*
G02*
X139600000Y-144850000I0J200000D01*
G01*
X139600000Y-143750000D01*
G75*
G02*
X139800000Y-143550000I200000J0D01*
G01*
X141800000Y-143550000D01*
G75*
G02*
X142000000Y-143750000I0J-200000D01*
G01*
X142000000Y-144850000D01*
G75*
G02*
X141800000Y-145050000I-200000J0D01*
G01*
G37*
G36*
G01*
X141800000Y-146750000D02*
X139800000Y-146750000D01*
G75*
G02*
X139600000Y-146550000I0J200000D01*
G01*
X139600000Y-145450000D01*
G75*
G02*
X139800000Y-145250000I200000J0D01*
G01*
X141800000Y-145250000D01*
G75*
G02*
X142000000Y-145450000I0J-200000D01*
G01*
X142000000Y-146550000D01*
G75*
G02*
X141800000Y-146750000I-200000J0D01*
G01*
G37*
G36*
G01*
X141800000Y-148450000D02*
X139800000Y-148450000D01*
G75*
G02*
X139600000Y-148250000I0J200000D01*
G01*
X139600000Y-147150000D01*
G75*
G02*
X139800000Y-146950000I200000J0D01*
G01*
X141800000Y-146950000D01*
G75*
G02*
X142000000Y-147150000I0J-200000D01*
G01*
X142000000Y-148250000D01*
G75*
G02*
X141800000Y-148450000I-200000J0D01*
G01*
G37*
G36*
G01*
X146600000Y-148450000D02*
X144600000Y-148450000D01*
G75*
G02*
X144400000Y-148250000I0J200000D01*
G01*
X144400000Y-147150000D01*
G75*
G02*
X144600000Y-146950000I200000J0D01*
G01*
X146600000Y-146950000D01*
G75*
G02*
X146800000Y-147150000I0J-200000D01*
G01*
X146800000Y-148250000D01*
G75*
G02*
X146600000Y-148450000I-200000J0D01*
G01*
G37*
G36*
G01*
X146600000Y-146750000D02*
X144600000Y-146750000D01*
G75*
G02*
X144400000Y-146550000I0J200000D01*
G01*
X144400000Y-145450000D01*
G75*
G02*
X144600000Y-145250000I200000J0D01*
G01*
X146600000Y-145250000D01*
G75*
G02*
X146800000Y-145450000I0J-200000D01*
G01*
X146800000Y-146550000D01*
G75*
G02*
X146600000Y-146750000I-200000J0D01*
G01*
G37*
G36*
G01*
X146600000Y-145050000D02*
X144600000Y-145050000D01*
G75*
G02*
X144400000Y-144850000I0J200000D01*
G01*
X144400000Y-143750000D01*
G75*
G02*
X144600000Y-143550000I200000J0D01*
G01*
X146600000Y-143550000D01*
G75*
G02*
X146800000Y-143750000I0J-200000D01*
G01*
X146800000Y-144850000D01*
G75*
G02*
X146600000Y-145050000I-200000J0D01*
G01*
G37*
G36*
G01*
X210538299Y-134318198D02*
X209124085Y-135732412D01*
G75*
G02*
X208841243Y-135732412I-141421J141421D01*
G01*
X208063425Y-134954594D01*
G75*
G02*
X208063425Y-134671752I141421J141421D01*
G01*
X209477639Y-133257538D01*
G75*
G02*
X209760481Y-133257538I141421J-141421D01*
G01*
X210538299Y-134035356D01*
G75*
G02*
X210538299Y-134318198I-141421J-141421D01*
G01*
G37*
G36*
G01*
X211740381Y-135520279D02*
X210326167Y-136934493D01*
G75*
G02*
X210043325Y-136934493I-141421J141421D01*
G01*
X209265507Y-136156675D01*
G75*
G02*
X209265507Y-135873833I141421J141421D01*
G01*
X210679721Y-134459619D01*
G75*
G02*
X210962563Y-134459619I141421J-141421D01*
G01*
X211740381Y-135237437D01*
G75*
G02*
X211740381Y-135520279I-141421J-141421D01*
G01*
G37*
G36*
G01*
X212942462Y-136722361D02*
X211528248Y-138136575D01*
G75*
G02*
X211245406Y-138136575I-141421J141421D01*
G01*
X210467588Y-137358757D01*
G75*
G02*
X210467588Y-137075915I141421J141421D01*
G01*
X211881802Y-135661701D01*
G75*
G02*
X212164644Y-135661701I141421J-141421D01*
G01*
X212942462Y-136439519D01*
G75*
G02*
X212942462Y-136722361I-141421J-141421D01*
G01*
G37*
G36*
G01*
X216336575Y-133328248D02*
X214922361Y-134742462D01*
G75*
G02*
X214639519Y-134742462I-141421J141421D01*
G01*
X213861701Y-133964644D01*
G75*
G02*
X213861701Y-133681802I141421J141421D01*
G01*
X215275915Y-132267588D01*
G75*
G02*
X215558757Y-132267588I141421J-141421D01*
G01*
X216336575Y-133045406D01*
G75*
G02*
X216336575Y-133328248I-141421J-141421D01*
G01*
G37*
G36*
G01*
X215134493Y-132126167D02*
X213720279Y-133540381D01*
G75*
G02*
X213437437Y-133540381I-141421J141421D01*
G01*
X212659619Y-132762563D01*
G75*
G02*
X212659619Y-132479721I141421J141421D01*
G01*
X214073833Y-131065507D01*
G75*
G02*
X214356675Y-131065507I141421J-141421D01*
G01*
X215134493Y-131843325D01*
G75*
G02*
X215134493Y-132126167I-141421J-141421D01*
G01*
G37*
G36*
G01*
X213932412Y-130924085D02*
X212518198Y-132338299D01*
G75*
G02*
X212235356Y-132338299I-141421J141421D01*
G01*
X211457538Y-131560481D01*
G75*
G02*
X211457538Y-131277639I141421J141421D01*
G01*
X212871752Y-129863425D01*
G75*
G02*
X213154594Y-129863425I141421J-141421D01*
G01*
X213932412Y-130641243D01*
G75*
G02*
X213932412Y-130924085I-141421J-141421D01*
G01*
G37*
G36*
G01*
X97881802Y-132338299D02*
X96467588Y-130924085D01*
G75*
G02*
X96467588Y-130641243I141421J141421D01*
G01*
X97245406Y-129863425D01*
G75*
G02*
X97528248Y-129863425I141421J-141421D01*
G01*
X98942462Y-131277639D01*
G75*
G02*
X98942462Y-131560481I-141421J-141421D01*
G01*
X98164644Y-132338299D01*
G75*
G02*
X97881802Y-132338299I-141421J141421D01*
G01*
G37*
G36*
G01*
X96679721Y-133540381D02*
X95265507Y-132126167D01*
G75*
G02*
X95265507Y-131843325I141421J141421D01*
G01*
X96043325Y-131065507D01*
G75*
G02*
X96326167Y-131065507I141421J-141421D01*
G01*
X97740381Y-132479721D01*
G75*
G02*
X97740381Y-132762563I-141421J-141421D01*
G01*
X96962563Y-133540381D01*
G75*
G02*
X96679721Y-133540381I-141421J141421D01*
G01*
G37*
G36*
G01*
X95477639Y-134742462D02*
X94063425Y-133328248D01*
G75*
G02*
X94063425Y-133045406I141421J141421D01*
G01*
X94841243Y-132267588D01*
G75*
G02*
X95124085Y-132267588I141421J-141421D01*
G01*
X96538299Y-133681802D01*
G75*
G02*
X96538299Y-133964644I-141421J-141421D01*
G01*
X95760481Y-134742462D01*
G75*
G02*
X95477639Y-134742462I-141421J141421D01*
G01*
G37*
G36*
G01*
X98871752Y-138136575D02*
X97457538Y-136722361D01*
G75*
G02*
X97457538Y-136439519I141421J141421D01*
G01*
X98235356Y-135661701D01*
G75*
G02*
X98518198Y-135661701I141421J-141421D01*
G01*
X99932412Y-137075915D01*
G75*
G02*
X99932412Y-137358757I-141421J-141421D01*
G01*
X99154594Y-138136575D01*
G75*
G02*
X98871752Y-138136575I-141421J141421D01*
G01*
G37*
G36*
G01*
X100073833Y-136934493D02*
X98659619Y-135520279D01*
G75*
G02*
X98659619Y-135237437I141421J141421D01*
G01*
X99437437Y-134459619D01*
G75*
G02*
X99720279Y-134459619I141421J-141421D01*
G01*
X101134493Y-135873833D01*
G75*
G02*
X101134493Y-136156675I-141421J-141421D01*
G01*
X100356675Y-136934493D01*
G75*
G02*
X100073833Y-136934493I-141421J141421D01*
G01*
G37*
G36*
G01*
X101275915Y-135732412D02*
X99861701Y-134318198D01*
G75*
G02*
X99861701Y-134035356I141421J141421D01*
G01*
X100639519Y-133257538D01*
G75*
G02*
X100922361Y-133257538I141421J-141421D01*
G01*
X102336575Y-134671752D01*
G75*
G02*
X102336575Y-134954594I-141421J-141421D01*
G01*
X101558757Y-135732412D01*
G75*
G02*
X101275915Y-135732412I-141421J141421D01*
G01*
G37*
G36*
G01*
X219250000Y-97400000D02*
X219250000Y-99400000D01*
G75*
G02*
X219050000Y-99600000I-200000J0D01*
G01*
X217950000Y-99600000D01*
G75*
G02*
X217750000Y-99400000I0J200000D01*
G01*
X217750000Y-97400000D01*
G75*
G02*
X217950000Y-97200000I200000J0D01*
G01*
X219050000Y-97200000D01*
G75*
G02*
X219250000Y-97400000I0J-200000D01*
G01*
G37*
G36*
G01*
X220950000Y-97400000D02*
X220950000Y-99400000D01*
G75*
G02*
X220750000Y-99600000I-200000J0D01*
G01*
X219650000Y-99600000D01*
G75*
G02*
X219450000Y-99400000I0J200000D01*
G01*
X219450000Y-97400000D01*
G75*
G02*
X219650000Y-97200000I200000J0D01*
G01*
X220750000Y-97200000D01*
G75*
G02*
X220950000Y-97400000I0J-200000D01*
G01*
G37*
G36*
G01*
X222650000Y-97400000D02*
X222650000Y-99400000D01*
G75*
G02*
X222450000Y-99600000I-200000J0D01*
G01*
X221350000Y-99600000D01*
G75*
G02*
X221150000Y-99400000I0J200000D01*
G01*
X221150000Y-97400000D01*
G75*
G02*
X221350000Y-97200000I200000J0D01*
G01*
X222450000Y-97200000D01*
G75*
G02*
X222650000Y-97400000I0J-200000D01*
G01*
G37*
G36*
G01*
X222650000Y-92600000D02*
X222650000Y-94600000D01*
G75*
G02*
X222450000Y-94800000I-200000J0D01*
G01*
X221350000Y-94800000D01*
G75*
G02*
X221150000Y-94600000I0J200000D01*
G01*
X221150000Y-92600000D01*
G75*
G02*
X221350000Y-92400000I200000J0D01*
G01*
X222450000Y-92400000D01*
G75*
G02*
X222650000Y-92600000I0J-200000D01*
G01*
G37*
G36*
G01*
X220950000Y-92600000D02*
X220950000Y-94600000D01*
G75*
G02*
X220750000Y-94800000I-200000J0D01*
G01*
X219650000Y-94800000D01*
G75*
G02*
X219450000Y-94600000I0J200000D01*
G01*
X219450000Y-92600000D01*
G75*
G02*
X219650000Y-92400000I200000J0D01*
G01*
X220750000Y-92400000D01*
G75*
G02*
X220950000Y-92600000I0J-200000D01*
G01*
G37*
G36*
G01*
X219250000Y-92600000D02*
X219250000Y-94600000D01*
G75*
G02*
X219050000Y-94800000I-200000J0D01*
G01*
X217950000Y-94800000D01*
G75*
G02*
X217750000Y-94600000I0J200000D01*
G01*
X217750000Y-92600000D01*
G75*
G02*
X217950000Y-92400000I200000J0D01*
G01*
X219050000Y-92400000D01*
G75*
G02*
X219250000Y-92600000I0J-200000D01*
G01*
G37*
G36*
G01*
X91150000Y-94600000D02*
X91150000Y-92600000D01*
G75*
G02*
X91350000Y-92400000I200000J0D01*
G01*
X92450000Y-92400000D01*
G75*
G02*
X92650000Y-92600000I0J-200000D01*
G01*
X92650000Y-94600000D01*
G75*
G02*
X92450000Y-94800000I-200000J0D01*
G01*
X91350000Y-94800000D01*
G75*
G02*
X91150000Y-94600000I0J200000D01*
G01*
G37*
G36*
G01*
X89450000Y-94600000D02*
X89450000Y-92600000D01*
G75*
G02*
X89650000Y-92400000I200000J0D01*
G01*
X90750000Y-92400000D01*
G75*
G02*
X90950000Y-92600000I0J-200000D01*
G01*
X90950000Y-94600000D01*
G75*
G02*
X90750000Y-94800000I-200000J0D01*
G01*
X89650000Y-94800000D01*
G75*
G02*
X89450000Y-94600000I0J200000D01*
G01*
G37*
G36*
G01*
X87750000Y-94600000D02*
X87750000Y-92600000D01*
G75*
G02*
X87950000Y-92400000I200000J0D01*
G01*
X89050000Y-92400000D01*
G75*
G02*
X89250000Y-92600000I0J-200000D01*
G01*
X89250000Y-94600000D01*
G75*
G02*
X89050000Y-94800000I-200000J0D01*
G01*
X87950000Y-94800000D01*
G75*
G02*
X87750000Y-94600000I0J200000D01*
G01*
G37*
G36*
G01*
X87750000Y-99400000D02*
X87750000Y-97400000D01*
G75*
G02*
X87950000Y-97200000I200000J0D01*
G01*
X89050000Y-97200000D01*
G75*
G02*
X89250000Y-97400000I0J-200000D01*
G01*
X89250000Y-99400000D01*
G75*
G02*
X89050000Y-99600000I-200000J0D01*
G01*
X87950000Y-99600000D01*
G75*
G02*
X87750000Y-99400000I0J200000D01*
G01*
G37*
G36*
G01*
X89450000Y-99400000D02*
X89450000Y-97400000D01*
G75*
G02*
X89650000Y-97200000I200000J0D01*
G01*
X90750000Y-97200000D01*
G75*
G02*
X90950000Y-97400000I0J-200000D01*
G01*
X90950000Y-99400000D01*
G75*
G02*
X90750000Y-99600000I-200000J0D01*
G01*
X89650000Y-99600000D01*
G75*
G02*
X89450000Y-99400000I0J200000D01*
G01*
G37*
G36*
G01*
X91150000Y-99400000D02*
X91150000Y-97400000D01*
G75*
G02*
X91350000Y-97200000I200000J0D01*
G01*
X92450000Y-97200000D01*
G75*
G02*
X92650000Y-97400000I0J-200000D01*
G01*
X92650000Y-99400000D01*
G75*
G02*
X92450000Y-99600000I-200000J0D01*
G01*
X91350000Y-99600000D01*
G75*
G02*
X91150000Y-99400000I0J200000D01*
G01*
G37*
G36*
G01*
X203700000Y-68650000D02*
X205700000Y-68650000D01*
G75*
G02*
X205900000Y-68850000I0J-200000D01*
G01*
X205900000Y-69950000D01*
G75*
G02*
X205700000Y-70150000I-200000J0D01*
G01*
X203700000Y-70150000D01*
G75*
G02*
X203500000Y-69950000I0J200000D01*
G01*
X203500000Y-68850000D01*
G75*
G02*
X203700000Y-68650000I200000J0D01*
G01*
G37*
G36*
G01*
X203700000Y-66950000D02*
X205700000Y-66950000D01*
G75*
G02*
X205900000Y-67150000I0J-200000D01*
G01*
X205900000Y-68250000D01*
G75*
G02*
X205700000Y-68450000I-200000J0D01*
G01*
X203700000Y-68450000D01*
G75*
G02*
X203500000Y-68250000I0J200000D01*
G01*
X203500000Y-67150000D01*
G75*
G02*
X203700000Y-66950000I200000J0D01*
G01*
G37*
G36*
G01*
X203700000Y-65250000D02*
X205700000Y-65250000D01*
G75*
G02*
X205900000Y-65450000I0J-200000D01*
G01*
X205900000Y-66550000D01*
G75*
G02*
X205700000Y-66750000I-200000J0D01*
G01*
X203700000Y-66750000D01*
G75*
G02*
X203500000Y-66550000I0J200000D01*
G01*
X203500000Y-65450000D01*
G75*
G02*
X203700000Y-65250000I200000J0D01*
G01*
G37*
G36*
G01*
X198900000Y-65250000D02*
X200900000Y-65250000D01*
G75*
G02*
X201100000Y-65450000I0J-200000D01*
G01*
X201100000Y-66550000D01*
G75*
G02*
X200900000Y-66750000I-200000J0D01*
G01*
X198900000Y-66750000D01*
G75*
G02*
X198700000Y-66550000I0J200000D01*
G01*
X198700000Y-65450000D01*
G75*
G02*
X198900000Y-65250000I200000J0D01*
G01*
G37*
G36*
G01*
X198900000Y-66950000D02*
X200900000Y-66950000D01*
G75*
G02*
X201100000Y-67150000I0J-200000D01*
G01*
X201100000Y-68250000D01*
G75*
G02*
X200900000Y-68450000I-200000J0D01*
G01*
X198900000Y-68450000D01*
G75*
G02*
X198700000Y-68250000I0J200000D01*
G01*
X198700000Y-67150000D01*
G75*
G02*
X198900000Y-66950000I200000J0D01*
G01*
G37*
G36*
G01*
X198900000Y-68650000D02*
X200900000Y-68650000D01*
G75*
G02*
X201100000Y-68850000I0J-200000D01*
G01*
X201100000Y-69950000D01*
G75*
G02*
X200900000Y-70150000I-200000J0D01*
G01*
X198900000Y-70150000D01*
G75*
G02*
X198700000Y-69950000I0J200000D01*
G01*
X198700000Y-68850000D01*
G75*
G02*
X198900000Y-68650000I200000J0D01*
G01*
G37*
G36*
G01*
X109500000Y-68650000D02*
X111500000Y-68650000D01*
G75*
G02*
X111700000Y-68850000I0J-200000D01*
G01*
X111700000Y-69950000D01*
G75*
G02*
X111500000Y-70150000I-200000J0D01*
G01*
X109500000Y-70150000D01*
G75*
G02*
X109300000Y-69950000I0J200000D01*
G01*
X109300000Y-68850000D01*
G75*
G02*
X109500000Y-68650000I200000J0D01*
G01*
G37*
G36*
G01*
X109500000Y-66950000D02*
X111500000Y-66950000D01*
G75*
G02*
X111700000Y-67150000I0J-200000D01*
G01*
X111700000Y-68250000D01*
G75*
G02*
X111500000Y-68450000I-200000J0D01*
G01*
X109500000Y-68450000D01*
G75*
G02*
X109300000Y-68250000I0J200000D01*
G01*
X109300000Y-67150000D01*
G75*
G02*
X109500000Y-66950000I200000J0D01*
G01*
G37*
G36*
G01*
X109500000Y-65250000D02*
X111500000Y-65250000D01*
G75*
G02*
X111700000Y-65450000I0J-200000D01*
G01*
X111700000Y-66550000D01*
G75*
G02*
X111500000Y-66750000I-200000J0D01*
G01*
X109500000Y-66750000D01*
G75*
G02*
X109300000Y-66550000I0J200000D01*
G01*
X109300000Y-65450000D01*
G75*
G02*
X109500000Y-65250000I200000J0D01*
G01*
G37*
G36*
G01*
X104700000Y-65250000D02*
X106700000Y-65250000D01*
G75*
G02*
X106900000Y-65450000I0J-200000D01*
G01*
X106900000Y-66550000D01*
G75*
G02*
X106700000Y-66750000I-200000J0D01*
G01*
X104700000Y-66750000D01*
G75*
G02*
X104500000Y-66550000I0J200000D01*
G01*
X104500000Y-65450000D01*
G75*
G02*
X104700000Y-65250000I200000J0D01*
G01*
G37*
G36*
G01*
X104700000Y-66950000D02*
X106700000Y-66950000D01*
G75*
G02*
X106900000Y-67150000I0J-200000D01*
G01*
X106900000Y-68250000D01*
G75*
G02*
X106700000Y-68450000I-200000J0D01*
G01*
X104700000Y-68450000D01*
G75*
G02*
X104500000Y-68250000I0J200000D01*
G01*
X104500000Y-67150000D01*
G75*
G02*
X104700000Y-66950000I200000J0D01*
G01*
G37*
G36*
G01*
X104700000Y-68650000D02*
X106700000Y-68650000D01*
G75*
G02*
X106900000Y-68850000I0J-200000D01*
G01*
X106900000Y-69950000D01*
G75*
G02*
X106700000Y-70150000I-200000J0D01*
G01*
X104700000Y-70150000D01*
G75*
G02*
X104500000Y-69950000I0J200000D01*
G01*
X104500000Y-68850000D01*
G75*
G02*
X104700000Y-68650000I200000J0D01*
G01*
G37*
G36*
G01*
X153900000Y-139192000D02*
X153900000Y-140192000D01*
G75*
G02*
X153700000Y-140392000I-200000J0D01*
G01*
X150900000Y-140392000D01*
G75*
G02*
X150700000Y-140192000I0J200000D01*
G01*
X150700000Y-139192000D01*
G75*
G02*
X150900000Y-138992000I200000J0D01*
G01*
X153700000Y-138992000D01*
G75*
G02*
X153900000Y-139192000I0J-200000D01*
G01*
G37*
G36*
G01*
X159700000Y-139192000D02*
X159700000Y-140192000D01*
G75*
G02*
X159500000Y-140392000I-200000J0D01*
G01*
X156700000Y-140392000D01*
G75*
G02*
X156500000Y-140192000I0J200000D01*
G01*
X156500000Y-139192000D01*
G75*
G02*
X156700000Y-138992000I200000J0D01*
G01*
X159500000Y-138992000D01*
G75*
G02*
X159700000Y-139192000I0J-200000D01*
G01*
G37*
G36*
G01*
X153900000Y-143192000D02*
X153900000Y-144192000D01*
G75*
G02*
X153700000Y-144392000I-200000J0D01*
G01*
X150900000Y-144392000D01*
G75*
G02*
X150700000Y-144192000I0J200000D01*
G01*
X150700000Y-143192000D01*
G75*
G02*
X150900000Y-142992000I200000J0D01*
G01*
X153700000Y-142992000D01*
G75*
G02*
X153900000Y-143192000I0J-200000D01*
G01*
G37*
G36*
G01*
X159700000Y-143192000D02*
X159700000Y-144192000D01*
G75*
G02*
X159500000Y-144392000I-200000J0D01*
G01*
X156700000Y-144392000D01*
G75*
G02*
X156500000Y-144192000I0J200000D01*
G01*
X156500000Y-143192000D01*
G75*
G02*
X156700000Y-142992000I200000J0D01*
G01*
X159500000Y-142992000D01*
G75*
G02*
X159700000Y-143192000I0J-200000D01*
G01*
G37*
G36*
G01*
X119950000Y-64770000D02*
X119950000Y-66470000D01*
G75*
G02*
X119750000Y-66670000I-200000J0D01*
G01*
X118050000Y-66670000D01*
G75*
G02*
X117850000Y-66470000I0J200000D01*
G01*
X117850000Y-64770000D01*
G75*
G02*
X118050000Y-64570000I200000J0D01*
G01*
X119750000Y-64570000D01*
G75*
G02*
X119950000Y-64770000I0J-200000D01*
G01*
G37*
D10*
X116360000Y-65620000D03*
X118900000Y-68160000D03*
X116360000Y-68160000D03*
X118900000Y-70700000D03*
X116360000Y-70700000D03*
D11*
X102468000Y-148792000D03*
D12*
X77200000Y-76000000D03*
X87200000Y-76000000D03*
X82200000Y-76000000D03*
D13*
X90200000Y-65500000D03*
X74200000Y-65500000D03*
D12*
X223200000Y-76000000D03*
X233200000Y-76000000D03*
X228200000Y-76000000D03*
D13*
X236200000Y-65500000D03*
X220200000Y-65500000D03*
D14*
X188537500Y-141692000D03*
D15*
X193617500Y-141692000D03*
X183457500Y-141692000D03*
D14*
X176637500Y-133452000D03*
X200437500Y-133452000D03*
D16*
X200437500Y-148692000D03*
X176637500Y-148692000D03*
D17*
X184727500Y-139152000D03*
X191077500Y-136612000D03*
D14*
X121862500Y-141692000D03*
D15*
X126942500Y-141692000D03*
X116782500Y-141692000D03*
D14*
X109962500Y-133452000D03*
X133762500Y-133452000D03*
D16*
X133762500Y-148692000D03*
X109962500Y-148692000D03*
D17*
X118052500Y-139152000D03*
X124402500Y-136612000D03*
D14*
X198062500Y-103592000D03*
D15*
X203142500Y-103592000D03*
X192982500Y-103592000D03*
D17*
X194252500Y-101052000D03*
X200602500Y-98512000D03*
D14*
X169487500Y-103592000D03*
D15*
X174567500Y-103592000D03*
X164407500Y-103592000D03*
D17*
X165677500Y-101052000D03*
X172027500Y-98512000D03*
D14*
X140912500Y-103592000D03*
D15*
X145992500Y-103592000D03*
X135832500Y-103592000D03*
D17*
X137102500Y-101052000D03*
X143452500Y-98512000D03*
D14*
X112337500Y-103592000D03*
D15*
X117417500Y-103592000D03*
X107257500Y-103592000D03*
D17*
X108527500Y-101052000D03*
X114877500Y-98512000D03*
D14*
X155200000Y-66000000D03*
D15*
X160280000Y-66000000D03*
X150120000Y-66000000D03*
D17*
X151390000Y-63460000D03*
X157740000Y-60920000D03*
D18*
X125080000Y-65450000D03*
D19*
X132280000Y-65450000D03*
D20*
X124350000Y-58250000D03*
X133010000Y-58250000D03*
X124350000Y-64200000D03*
X133010000Y-64200000D03*
D21*
X124675000Y-64450000D03*
D22*
X125880000Y-64800000D03*
X127480000Y-64800000D03*
X128280000Y-64800000D03*
X129080000Y-64800000D03*
X129880000Y-64800000D03*
X131480000Y-64800000D03*
X126280000Y-64100000D03*
X127080000Y-64100000D03*
X127880000Y-64100000D03*
X129480000Y-64100000D03*
X130280000Y-64100000D03*
X131080000Y-64100000D03*
D21*
X132685000Y-64450000D03*
D11*
X207932000Y-148792000D03*
X74700000Y-81500000D03*
X74700000Y-49500000D03*
X117800000Y-59350000D03*
X235700000Y-81500000D03*
X235700000Y-49500000D03*
X192600000Y-59350000D03*
M02*
