M48
; DRILL file {KiCad (5.1.10)-1} date 06/02/21 00:03:42
; FORMAT={-:-/ absolute / inch / decimal}
; #@! TF.CreationDate,2021-06-02T00:03:42-04:00
; #@! TF.GenerationSoftware,Kicad,Pcbnew,(5.1.10)-1
; #@! TF.FileFunction,NonPlated,1,2,NPTH
FMAT,2
INCH
T1C0.0335
T2C0.0669
T3C0.1181
T4C0.1201
T5C0.1260
T6C0.1575
%
G90
G05
T1
X4.9244Y-2.5768
T2
X4.2227Y-4.0784
X4.5977Y-5.5784
X4.6227Y-4.0784
X4.9977Y-5.5784
X5.3477Y-4.0784
X5.7477Y-4.0784
X5.9102Y-2.5984
X6.3102Y-2.5984
X6.4727Y-4.0784
X6.8727Y-4.0784
X7.2227Y-5.5784
X7.5977Y-4.0784
X7.6227Y-5.5784
X7.9977Y-4.0784
T3
X4.2727Y-3.9784
X4.5227Y-3.8784
X4.6477Y-5.4784
X4.8977Y-5.3784
X5.3977Y-3.9784
X5.6477Y-3.8784
X5.9602Y-2.4984
X6.2102Y-2.3984
X6.5227Y-3.9784
X6.7727Y-3.8784
X7.2727Y-5.4784
X7.5227Y-5.3784
X7.6477Y-3.9784
X7.8977Y-3.8784
T4
X4.3292Y-5.854
X5.2662Y-5.854
X6.9542Y-5.854
X7.8912Y-5.854
T5
X2.9409Y-1.9488
X2.9409Y-3.2087
X4.0342Y-5.858
X4.6378Y-2.3366
X7.5827Y-2.3366
X8.1863Y-5.858
X9.2795Y-1.9488
X9.2795Y-3.2087
T6
X4.3292Y-5.254
X4.4227Y-4.0784
X4.7977Y-5.5784
X5.2662Y-5.254
X5.5477Y-4.0784
X6.1102Y-2.5984
X6.6727Y-4.0784
X6.9542Y-5.254
X7.4227Y-5.5784
X7.7977Y-4.0784
X7.8912Y-5.254
T1
G00X5.202Y-2.5768
M15
G01X5.2138Y-2.5768
M16
G05
T0
M30
