M48
; DRILL file {KiCad (5.1.10)-1} date 06/02/21 00:03:42
; FORMAT={-:-/ absolute / inch / decimal}
; #@! TF.CreationDate,2021-06-02T00:03:42-04:00
; #@! TF.GenerationSoftware,Kicad,Pcbnew,(5.1.10)-1
; #@! TF.FileFunction,Plated,1,2,PTH
FMAT,2
INCH
T1C0.0157
T2C0.0236
T3C0.0394
T4C0.0472
T5C0.0945
%
G90
G05
T1
X3.4843Y-3.9764
X3.7244Y-2.9921
X3.9646Y-5.4685
X3.9843Y-2.9921
X4.0157Y-3.9764
X4.1614Y-2.5
X4.1614Y-2.9921
X4.1614Y-3.2283
X4.2205Y-2.9921
X4.2205Y-3.2283
X4.2795Y-2.9921
X4.2795Y-3.2283
X4.3465Y-5.4803
X4.5945Y-2.9134
X4.5945Y-3.1063
X4.6732Y-2.9134
X4.6732Y-3.1063
X4.752Y-2.9134
X4.752Y-3.1063
X4.811Y-3.4252
X4.811Y-3.4646
X4.811Y-3.5039
X4.8307Y-2.9134
X4.8307Y-3.1063
X4.8543Y-2.7756
X4.8827Y-2.8742
X4.8858Y-3.0236
X4.9094Y-2.9882
X4.9252Y-4.5315
X4.9559Y-2.5512
X4.9559Y-2.6417
X4.9567Y-3.1575
X4.9646Y-2.7953
X4.9717Y-2.5236
X4.9764Y-3.189
X4.9882Y-3.4252
X4.9882Y-3.4646
X4.9882Y-3.5039
X5.0031Y-2.5236
X5.0118Y-3.1929
X5.0157Y-2.9843
X5.0157Y-3.0197
X5.0157Y-3.0551
X5.017Y-2.661
X5.0189Y-2.5512
X5.0346Y-2.5236
X5.0504Y-2.5512
X5.0512Y-2.9843
X5.0512Y-3.0197
X5.0512Y-3.0551
X5.0514Y-2.6614
X5.0819Y-2.5512
X5.0866Y-2.9843
X5.0866Y-3.0197
X5.0866Y-3.0551
X5.0976Y-2.5236
X5.1134Y-2.5512
X5.126Y-3.9764
X5.1291Y-2.5236
X5.1606Y-2.5236
X5.1693Y-3.1457
X5.1732Y-2.6417
X5.1764Y-2.5512
X5.186Y-2.716
X5.2008Y-3.122
X5.2126Y-2.9134
X5.2126Y-3.0
X5.2323Y-3.0945
X5.2441Y-3.4252
X5.2677Y-3.0709
X5.2756Y-2.8504
X5.2756Y-2.9626
X5.2835Y-3.4646
X5.3228Y-3.5039
X5.4921Y-2.9685
X5.4921Y-3.2362
X5.5315Y-2.9685
X5.5315Y-3.2362
X5.5709Y-2.9685
X5.5709Y-3.2362
X5.5866Y-5.9173
X5.6102Y-2.9685
X5.6102Y-3.2362
X5.685Y-2.5
X6.248Y-3.9803
X6.7874Y-5.815
X6.9921Y-5.4803
X7.3701Y-3.9764
X7.7638Y-2.5984
X8.4843Y-3.2362
X8.5512Y-5.1732
X8.7362Y-3.5906
X8.7559Y-3.2362
T3
X4.5811Y-2.5835
X4.5811Y-2.6835
X4.5811Y-2.7835
X4.6811Y-2.5835
X4.6811Y-2.6835
X4.6811Y-2.7835
T4
X3.0394Y-2.9921
X3.2362Y-2.9921
X3.4331Y-2.9921
X8.7874Y-2.9921
X8.9843Y-2.9921
X9.1811Y-2.9921
T2
G00X4.8957Y-2.2835
M15
G01X4.8957Y-2.3031
M16
G05
G00X4.8957Y-2.5177
M15
G01X4.8957Y-2.5374
M16
G05
G00X4.9213Y-2.5374
M15
G01X4.8957Y-2.5374
M16
G05
G00X5.2366Y-2.5374
M15
G01X5.211Y-2.5374
M16
G05
G00X5.2366Y-2.2835
M15
G01X5.2366Y-2.3031
M16
G05
G00X5.2366Y-2.5177
M15
G01X5.2366Y-2.5374
M16
G05
T5
G00X2.9134Y-2.5787
M15
G01X2.9291Y-2.5787
M16
G05
G00X3.5433Y-2.5787
M15
G01X3.5591Y-2.5787
M16
G05
G00X8.6614Y-2.5787
M15
G01X8.6772Y-2.5787
M16
G05
G00X9.2913Y-2.5787
M15
G01X9.3071Y-2.5787
M16
G05
T0
M30
