G04 #@! TF.GenerationSoftware,KiCad,Pcbnew,(5.1.10)-1*
G04 #@! TF.CreationDate,2021-06-02T00:04:46-04:00*
G04 #@! TF.ProjectId,PocketVoltex,506f636b-6574-4566-9f6c-7465782e6b69,7*
G04 #@! TF.SameCoordinates,Original*
G04 #@! TF.FileFunction,Legend,Top*
G04 #@! TF.FilePolarity,Positive*
%FSLAX46Y46*%
G04 Gerber Fmt 4.6, Leading zero omitted, Abs format (unit mm)*
G04 Created by KiCad (PCBNEW (5.1.10)-1) date 2021-06-02 00:04:46*
%MOMM*%
%LPD*%
G01*
G04 APERTURE LIST*
%ADD10C,0.120000*%
%ADD11C,0.150000*%
%ADD12C,0.300000*%
G04 APERTURE END LIST*
D10*
X169700000Y-148700000D02*
X164700000Y-148700000D01*
X163600000Y-144400000D02*
X163600000Y-143300000D01*
X163600000Y-143300000D02*
X169700000Y-143300000D01*
D11*
X166400000Y-144300000D02*
X167200000Y-144900000D01*
X167200000Y-144900000D02*
X167200000Y-143700000D01*
X167200000Y-143700000D02*
X166400000Y-144300000D01*
D10*
X145700000Y-148700000D02*
X140700000Y-148700000D01*
X139600000Y-144400000D02*
X139600000Y-143300000D01*
X139600000Y-143300000D02*
X145700000Y-143300000D01*
D11*
X142400000Y-144300000D02*
X143200000Y-144900000D01*
X143200000Y-144900000D02*
X143200000Y-143700000D01*
X143200000Y-143700000D02*
X142400000Y-144300000D01*
D10*
X215876955Y-134141421D02*
X212341421Y-137676955D01*
X208523045Y-135414214D02*
X207745227Y-134636396D01*
X207745227Y-134636396D02*
X212058579Y-130323045D01*
D11*
X210432233Y-133363604D02*
X211422183Y-133222183D01*
X211422183Y-133222183D02*
X210573654Y-132373654D01*
X210573654Y-132373654D02*
X210432233Y-133363604D01*
D10*
X98058579Y-137676955D02*
X94523045Y-134141421D01*
X96785786Y-130323045D02*
X97563604Y-129545227D01*
X97563604Y-129545227D02*
X101876955Y-133858579D01*
D11*
X98836396Y-132232233D02*
X98977817Y-133222183D01*
X98977817Y-133222183D02*
X99826346Y-132373654D01*
X99826346Y-132373654D02*
X98836396Y-132232233D01*
D10*
X222900000Y-93500000D02*
X222900000Y-98500000D01*
X218600000Y-99600000D02*
X217500000Y-99600000D01*
X217500000Y-99600000D02*
X217500000Y-93500000D01*
D11*
X218500000Y-96800000D02*
X219100000Y-96000000D01*
X219100000Y-96000000D02*
X217900000Y-96000000D01*
X217900000Y-96000000D02*
X218500000Y-96800000D01*
D10*
X87500000Y-98500000D02*
X87500000Y-93500000D01*
X91800000Y-92400000D02*
X92900000Y-92400000D01*
X92900000Y-92400000D02*
X92900000Y-98500000D01*
D11*
X91900000Y-95200000D02*
X91300000Y-96000000D01*
X91300000Y-96000000D02*
X92500000Y-96000000D01*
X92500000Y-96000000D02*
X91900000Y-95200000D01*
D10*
X199800000Y-65000000D02*
X204800000Y-65000000D01*
X205900000Y-69300000D02*
X205900000Y-70400000D01*
X205900000Y-70400000D02*
X199800000Y-70400000D01*
D11*
X203100000Y-69400000D02*
X202300000Y-68800000D01*
X202300000Y-68800000D02*
X202300000Y-70000000D01*
X202300000Y-70000000D02*
X203100000Y-69400000D01*
D10*
X105600000Y-65000000D02*
X110600000Y-65000000D01*
X111700000Y-69300000D02*
X111700000Y-70400000D01*
X111700000Y-70400000D02*
X105600000Y-70400000D01*
D11*
X108900000Y-69400000D02*
X108100000Y-68800000D01*
X108100000Y-68800000D02*
X108100000Y-70000000D01*
X108100000Y-70000000D02*
X108900000Y-69400000D01*
D12*
X83614214Y-65500000D02*
G75*
G03*
X83614214Y-65500000I-1414214J0D01*
G01*
X74200000Y-63000000D02*
X74200000Y-58500000D01*
X74200000Y-58500000D02*
X90200000Y-58500000D01*
X90200000Y-58500000D02*
X90200000Y-63000000D01*
X90200000Y-68000000D02*
X90200000Y-76000000D01*
X90200000Y-76000000D02*
X88700000Y-76000000D01*
X85700000Y-76000000D02*
X83700000Y-76000000D01*
X80700000Y-76000000D02*
X78700000Y-76000000D01*
X75700000Y-76000000D02*
X74200000Y-76000000D01*
X74200000Y-76000000D02*
X74200000Y-68000000D01*
X229614214Y-65500000D02*
G75*
G03*
X229614214Y-65500000I-1414214J0D01*
G01*
X220200000Y-63000000D02*
X220200000Y-58500000D01*
X220200000Y-58500000D02*
X236200000Y-58500000D01*
X236200000Y-58500000D02*
X236200000Y-63000000D01*
X236200000Y-68000000D02*
X236200000Y-76000000D01*
X236200000Y-76000000D02*
X234700000Y-76000000D01*
X231700000Y-76000000D02*
X229700000Y-76000000D01*
X226700000Y-76000000D02*
X224700000Y-76000000D01*
X221700000Y-76000000D02*
X220200000Y-76000000D01*
X220200000Y-76000000D02*
X220200000Y-68000000D01*
D10*
X195522500Y-134707000D02*
X195522500Y-148677000D01*
X181552500Y-134707000D02*
X195522500Y-134707000D01*
X181552500Y-148677000D02*
X181552500Y-134707000D01*
X195522500Y-148677000D02*
X181552500Y-148677000D01*
X128847500Y-134707000D02*
X128847500Y-148677000D01*
X114877500Y-134707000D02*
X128847500Y-134707000D01*
X114877500Y-148677000D02*
X114877500Y-134707000D01*
X128847500Y-148677000D02*
X114877500Y-148677000D01*
X205047500Y-96607000D02*
X205047500Y-110577000D01*
X191077500Y-96607000D02*
X205047500Y-96607000D01*
X191077500Y-110577000D02*
X191077500Y-96607000D01*
X205047500Y-110577000D02*
X191077500Y-110577000D01*
X176472500Y-96607000D02*
X176472500Y-110577000D01*
X162502500Y-96607000D02*
X176472500Y-96607000D01*
X162502500Y-110577000D02*
X162502500Y-96607000D01*
X176472500Y-110577000D02*
X162502500Y-110577000D01*
X147897500Y-96607000D02*
X147897500Y-110577000D01*
X133927500Y-96607000D02*
X147897500Y-96607000D01*
X133927500Y-110577000D02*
X133927500Y-96607000D01*
X147897500Y-110577000D02*
X133927500Y-110577000D01*
X119322500Y-96607000D02*
X119322500Y-110577000D01*
X105352500Y-96607000D02*
X119322500Y-96607000D01*
X105352500Y-110577000D02*
X105352500Y-96607000D01*
X119322500Y-110577000D02*
X105352500Y-110577000D01*
X162185000Y-59015000D02*
X162185000Y-72985000D01*
X148215000Y-59015000D02*
X162185000Y-59015000D01*
X148215000Y-72985000D02*
X148215000Y-59015000D01*
X162185000Y-72985000D02*
X148215000Y-72985000D01*
D11*
X166461904Y-142952380D02*
X166461904Y-141952380D01*
X166700000Y-141952380D01*
X166842857Y-142000000D01*
X166938095Y-142095238D01*
X166985714Y-142190476D01*
X167033333Y-142380952D01*
X167033333Y-142523809D01*
X166985714Y-142714285D01*
X166938095Y-142809523D01*
X166842857Y-142904761D01*
X166700000Y-142952380D01*
X166461904Y-142952380D01*
X167604761Y-142380952D02*
X167509523Y-142333333D01*
X167461904Y-142285714D01*
X167414285Y-142190476D01*
X167414285Y-142142857D01*
X167461904Y-142047619D01*
X167509523Y-142000000D01*
X167604761Y-141952380D01*
X167795238Y-141952380D01*
X167890476Y-142000000D01*
X167938095Y-142047619D01*
X167985714Y-142142857D01*
X167985714Y-142190476D01*
X167938095Y-142285714D01*
X167890476Y-142333333D01*
X167795238Y-142380952D01*
X167604761Y-142380952D01*
X167509523Y-142428571D01*
X167461904Y-142476190D01*
X167414285Y-142571428D01*
X167414285Y-142761904D01*
X167461904Y-142857142D01*
X167509523Y-142904761D01*
X167604761Y-142952380D01*
X167795238Y-142952380D01*
X167890476Y-142904761D01*
X167938095Y-142857142D01*
X167985714Y-142761904D01*
X167985714Y-142571428D01*
X167938095Y-142476190D01*
X167890476Y-142428571D01*
X167795238Y-142380952D01*
X142461904Y-142952380D02*
X142461904Y-141952380D01*
X142700000Y-141952380D01*
X142842857Y-142000000D01*
X142938095Y-142095238D01*
X142985714Y-142190476D01*
X143033333Y-142380952D01*
X143033333Y-142523809D01*
X142985714Y-142714285D01*
X142938095Y-142809523D01*
X142842857Y-142904761D01*
X142700000Y-142952380D01*
X142461904Y-142952380D01*
X143366666Y-141952380D02*
X144033333Y-141952380D01*
X143604761Y-142952380D01*
X209523095Y-132366919D02*
X208815988Y-131659813D01*
X208984347Y-131491454D01*
X209119034Y-131424110D01*
X209253721Y-131424110D01*
X209354736Y-131457782D01*
X209523095Y-131558797D01*
X209624110Y-131659813D01*
X209725126Y-131828171D01*
X209758797Y-131929187D01*
X209758797Y-132063874D01*
X209691454Y-132198561D01*
X209523095Y-132366919D01*
X209826141Y-130649660D02*
X209691454Y-130784347D01*
X209657782Y-130885362D01*
X209657782Y-130952706D01*
X209691454Y-131121064D01*
X209792469Y-131289423D01*
X210061843Y-131558797D01*
X210162858Y-131592469D01*
X210230202Y-131592469D01*
X210331217Y-131558797D01*
X210465904Y-131424110D01*
X210499576Y-131323095D01*
X210499576Y-131255751D01*
X210465904Y-131154736D01*
X210297545Y-130986377D01*
X210196530Y-130952706D01*
X210129187Y-130952706D01*
X210028171Y-130986377D01*
X209893484Y-131121064D01*
X209859813Y-131222080D01*
X209859813Y-131289423D01*
X209893484Y-131390438D01*
X99833080Y-131323095D02*
X100540186Y-130615988D01*
X100708545Y-130784347D01*
X100775889Y-130919034D01*
X100775889Y-131053721D01*
X100742217Y-131154736D01*
X100641202Y-131323095D01*
X100540186Y-131424110D01*
X100371828Y-131525126D01*
X100270812Y-131558797D01*
X100136125Y-131558797D01*
X100001438Y-131491454D01*
X99833080Y-131323095D01*
X101584011Y-131659813D02*
X101247293Y-131323095D01*
X100876904Y-131626141D01*
X100944248Y-131626141D01*
X101045263Y-131659813D01*
X101213622Y-131828171D01*
X101247293Y-131929187D01*
X101247293Y-131996530D01*
X101213622Y-132097545D01*
X101045263Y-132265904D01*
X100944248Y-132299576D01*
X100876904Y-132299576D01*
X100775889Y-132265904D01*
X100607530Y-132097545D01*
X100573858Y-131996530D01*
X100573858Y-131929187D01*
X217152380Y-96738095D02*
X216152380Y-96738095D01*
X216152380Y-96500000D01*
X216200000Y-96357142D01*
X216295238Y-96261904D01*
X216390476Y-96214285D01*
X216580952Y-96166666D01*
X216723809Y-96166666D01*
X216914285Y-96214285D01*
X217009523Y-96261904D01*
X217104761Y-96357142D01*
X217152380Y-96500000D01*
X217152380Y-96738095D01*
X216485714Y-95309523D02*
X217152380Y-95309523D01*
X216104761Y-95547619D02*
X216819047Y-95785714D01*
X216819047Y-95166666D01*
X94152380Y-96738095D02*
X93152380Y-96738095D01*
X93152380Y-96500000D01*
X93200000Y-96357142D01*
X93295238Y-96261904D01*
X93390476Y-96214285D01*
X93580952Y-96166666D01*
X93723809Y-96166666D01*
X93914285Y-96214285D01*
X94009523Y-96261904D01*
X94104761Y-96357142D01*
X94152380Y-96500000D01*
X94152380Y-96738095D01*
X93152380Y-95833333D02*
X93152380Y-95214285D01*
X93533333Y-95547619D01*
X93533333Y-95404761D01*
X93580952Y-95309523D01*
X93628571Y-95261904D01*
X93723809Y-95214285D01*
X93961904Y-95214285D01*
X94057142Y-95261904D01*
X94104761Y-95309523D01*
X94152380Y-95404761D01*
X94152380Y-95690476D01*
X94104761Y-95785714D01*
X94057142Y-95833333D01*
X201561904Y-71652380D02*
X201561904Y-70652380D01*
X201800000Y-70652380D01*
X201942857Y-70700000D01*
X202038095Y-70795238D01*
X202085714Y-70890476D01*
X202133333Y-71080952D01*
X202133333Y-71223809D01*
X202085714Y-71414285D01*
X202038095Y-71509523D01*
X201942857Y-71604761D01*
X201800000Y-71652380D01*
X201561904Y-71652380D01*
X202514285Y-70747619D02*
X202561904Y-70700000D01*
X202657142Y-70652380D01*
X202895238Y-70652380D01*
X202990476Y-70700000D01*
X203038095Y-70747619D01*
X203085714Y-70842857D01*
X203085714Y-70938095D01*
X203038095Y-71080952D01*
X202466666Y-71652380D01*
X203085714Y-71652380D01*
X107361904Y-71652380D02*
X107361904Y-70652380D01*
X107600000Y-70652380D01*
X107742857Y-70700000D01*
X107838095Y-70795238D01*
X107885714Y-70890476D01*
X107933333Y-71080952D01*
X107933333Y-71223809D01*
X107885714Y-71414285D01*
X107838095Y-71509523D01*
X107742857Y-71604761D01*
X107600000Y-71652380D01*
X107361904Y-71652380D01*
X108885714Y-71652380D02*
X108314285Y-71652380D01*
X108600000Y-71652380D02*
X108600000Y-70652380D01*
X108504761Y-70795238D01*
X108409523Y-70890476D01*
X108314285Y-70938095D01*
X153866666Y-141596761D02*
X154009523Y-141644380D01*
X154247619Y-141644380D01*
X154342857Y-141596761D01*
X154390476Y-141549142D01*
X154438095Y-141453904D01*
X154438095Y-141358666D01*
X154390476Y-141263428D01*
X154342857Y-141215809D01*
X154247619Y-141168190D01*
X154057142Y-141120571D01*
X153961904Y-141072952D01*
X153914285Y-141025333D01*
X153866666Y-140930095D01*
X153866666Y-140834857D01*
X153914285Y-140739619D01*
X153961904Y-140692000D01*
X154057142Y-140644380D01*
X154295238Y-140644380D01*
X154438095Y-140692000D01*
X154771428Y-140644380D02*
X155009523Y-141644380D01*
X155200000Y-140930095D01*
X155390476Y-141644380D01*
X155628571Y-140644380D01*
X156152380Y-141072952D02*
X156057142Y-141025333D01*
X156009523Y-140977714D01*
X155961904Y-140882476D01*
X155961904Y-140834857D01*
X156009523Y-140739619D01*
X156057142Y-140692000D01*
X156152380Y-140644380D01*
X156342857Y-140644380D01*
X156438095Y-140692000D01*
X156485714Y-140739619D01*
X156533333Y-140834857D01*
X156533333Y-140882476D01*
X156485714Y-140977714D01*
X156438095Y-141025333D01*
X156342857Y-141072952D01*
X156152380Y-141072952D01*
X156057142Y-141120571D01*
X156009523Y-141168190D01*
X155961904Y-141263428D01*
X155961904Y-141453904D01*
X156009523Y-141549142D01*
X156057142Y-141596761D01*
X156152380Y-141644380D01*
X156342857Y-141644380D01*
X156438095Y-141596761D01*
X156485714Y-141549142D01*
X156533333Y-141453904D01*
X156533333Y-141263428D01*
X156485714Y-141168190D01*
X156438095Y-141120571D01*
X156342857Y-141072952D01*
X80485714Y-60348571D02*
X80819047Y-60348571D01*
X80961904Y-60872380D02*
X80485714Y-60872380D01*
X80485714Y-59872380D01*
X80961904Y-59872380D01*
X81390476Y-60872380D02*
X81390476Y-59872380D01*
X81961904Y-60872380D01*
X81961904Y-59872380D01*
X83009523Y-60777142D02*
X82961904Y-60824761D01*
X82819047Y-60872380D01*
X82723809Y-60872380D01*
X82580952Y-60824761D01*
X82485714Y-60729523D01*
X82438095Y-60634285D01*
X82390476Y-60443809D01*
X82390476Y-60300952D01*
X82438095Y-60110476D01*
X82485714Y-60015238D01*
X82580952Y-59920000D01*
X82723809Y-59872380D01*
X82819047Y-59872380D01*
X82961904Y-59920000D01*
X83009523Y-59967619D01*
X83961904Y-60872380D02*
X83390476Y-60872380D01*
X83676190Y-60872380D02*
X83676190Y-59872380D01*
X83580952Y-60015238D01*
X83485714Y-60110476D01*
X83390476Y-60158095D01*
X226485714Y-60348571D02*
X226819047Y-60348571D01*
X226961904Y-60872380D02*
X226485714Y-60872380D01*
X226485714Y-59872380D01*
X226961904Y-59872380D01*
X227390476Y-60872380D02*
X227390476Y-59872380D01*
X227961904Y-60872380D01*
X227961904Y-59872380D01*
X229009523Y-60777142D02*
X228961904Y-60824761D01*
X228819047Y-60872380D01*
X228723809Y-60872380D01*
X228580952Y-60824761D01*
X228485714Y-60729523D01*
X228438095Y-60634285D01*
X228390476Y-60443809D01*
X228390476Y-60300952D01*
X228438095Y-60110476D01*
X228485714Y-60015238D01*
X228580952Y-59920000D01*
X228723809Y-59872380D01*
X228819047Y-59872380D01*
X228961904Y-59920000D01*
X229009523Y-59967619D01*
X229390476Y-59967619D02*
X229438095Y-59920000D01*
X229533333Y-59872380D01*
X229771428Y-59872380D01*
X229866666Y-59920000D01*
X229914285Y-59967619D01*
X229961904Y-60062857D01*
X229961904Y-60158095D01*
X229914285Y-60300952D01*
X229342857Y-60872380D01*
X229961904Y-60872380D01*
M02*
