G04 #@! TF.GenerationSoftware,KiCad,Pcbnew,(5.1.10)-1*
G04 #@! TF.CreationDate,2021-06-02T00:04:46-04:00*
G04 #@! TF.ProjectId,PocketVoltex,506f636b-6574-4566-9f6c-7465782e6b69,7*
G04 #@! TF.SameCoordinates,Original*
G04 #@! TF.FileFunction,Paste,Bot*
G04 #@! TF.FilePolarity,Positive*
%FSLAX46Y46*%
G04 Gerber Fmt 4.6, Leading zero omitted, Abs format (unit mm)*
G04 Created by KiCad (PCBNEW (5.1.10)-1) date 2021-06-02 00:04:46*
%MOMM*%
%LPD*%
G01*
G04 APERTURE LIST*
%ADD10R,0.900000X0.500000*%
%ADD11R,0.700000X0.250000*%
%ADD12R,0.250000X0.700000*%
%ADD13R,1.035000X1.035000*%
%ADD14R,2.000000X0.600000*%
%ADD15R,2.550000X2.500000*%
%ADD16R,0.320000X0.700000*%
%ADD17R,0.750000X0.800000*%
%ADD18R,0.800000X0.750000*%
G04 APERTURE END LIST*
D10*
X132765800Y-68998400D03*
X132765800Y-70498400D03*
D11*
X130700000Y-74950000D03*
X130700000Y-75450000D03*
X130700000Y-75950000D03*
X130700000Y-76450000D03*
X130700000Y-76950000D03*
X130700000Y-77450000D03*
X130700000Y-77950000D03*
X130700000Y-78450000D03*
D12*
X130050000Y-79100000D03*
X129550000Y-79100000D03*
X129050000Y-79100000D03*
X128550000Y-79100000D03*
X128050000Y-79100000D03*
X127550000Y-79100000D03*
X127050000Y-79100000D03*
X126550000Y-79100000D03*
D11*
X125900000Y-78450000D03*
X125900000Y-77950000D03*
X125900000Y-77450000D03*
X125900000Y-76950000D03*
X125900000Y-76450000D03*
X125900000Y-75950000D03*
X125900000Y-75450000D03*
X125900000Y-74950000D03*
D12*
X126550000Y-74300000D03*
X127050000Y-74300000D03*
X127550000Y-74300000D03*
X128050000Y-74300000D03*
X128550000Y-74300000D03*
X129050000Y-74300000D03*
X129550000Y-74300000D03*
X130050000Y-74300000D03*
D13*
X127437500Y-77562500D03*
X127437500Y-75837500D03*
X129162500Y-77562500D03*
X129162500Y-75837500D03*
D14*
X135800000Y-74300000D03*
X135800000Y-75250000D03*
X135800000Y-76200000D03*
D15*
X194837500Y-136612000D03*
X180937500Y-139152000D03*
X128162500Y-136612000D03*
X114262500Y-139152000D03*
X204362500Y-98512000D03*
X190462500Y-101052000D03*
X175787500Y-98512000D03*
X161887500Y-101052000D03*
X147212500Y-98512000D03*
X133312500Y-101052000D03*
X118637500Y-98512000D03*
X104737500Y-101052000D03*
X161500000Y-60920000D03*
X147600000Y-63460000D03*
D10*
X124600000Y-69050000D03*
X124600000Y-70550000D03*
X129700000Y-70500000D03*
X129700000Y-69000000D03*
X127700000Y-69000000D03*
X127700000Y-70500000D03*
D16*
X125930000Y-66110000D03*
X126430000Y-66110000D03*
X126930000Y-66110000D03*
X127430000Y-66110000D03*
X127930000Y-66110000D03*
X128430000Y-66110000D03*
X128930000Y-66110000D03*
X129430000Y-66110000D03*
X129930000Y-66110000D03*
X130430000Y-66110000D03*
X130930000Y-66110000D03*
X131430000Y-66110000D03*
D17*
X120700000Y-76750000D03*
X120700000Y-75250000D03*
X122700000Y-75250000D03*
X122700000Y-76750000D03*
X116700000Y-76750000D03*
X116700000Y-75250000D03*
X118700000Y-75250000D03*
X118700000Y-76750000D03*
D18*
X131950000Y-72400000D03*
X130450000Y-72400000D03*
X127550000Y-72600000D03*
X126050000Y-72600000D03*
M02*
